<mxfile host="app.diagrams.net" agent="Mozilla/5.0 (Windows NT 10.0; Win64; x64) AppleWebKit/537.36 (KHTML, like Gecko) Chrome/136.0.0.0 Safari/537.36" version="26.2.14" pages="3">
  <diagram name="Pedidos de cocina" id="gCehNLZFP4cxyLlEmRSX">
    <mxGraphModel grid="0" page="0" gridSize="10" guides="1" tooltips="1" connect="1" arrows="1" fold="1" pageScale="1" pageWidth="827" pageHeight="1169" math="0" shadow="0">
      <root>
        <mxCell id="0" />
        <mxCell id="1" parent="0" />
        <mxCell id="o5xBKpDKvs33tsmAAUZQ-6" value="" style="whiteSpace=wrap;html=1;aspect=fixed;" vertex="1" parent="1">
          <mxGeometry x="-152" y="-226" width="333" height="333" as="geometry" />
        </mxCell>
        <mxCell id="o5xBKpDKvs33tsmAAUZQ-7" value="Pedidos en Cocina" style="text;html=1;align=center;verticalAlign=middle;resizable=0;points=[];autosize=1;strokeColor=none;fillColor=none;fontSize=16;" vertex="1" parent="1">
          <mxGeometry x="-61.5" y="-293" width="152" height="31" as="geometry" />
        </mxCell>
        <mxCell id="o5xBKpDKvs33tsmAAUZQ-8" value="refrescar" style="rounded=1;whiteSpace=wrap;html=1;" vertex="1" parent="1">
          <mxGeometry x="-143" y="-208" width="105" height="33" as="geometry" />
        </mxCell>
        <mxCell id="o5xBKpDKvs33tsmAAUZQ-9" value="Ordenar por llegada" style="rounded=1;whiteSpace=wrap;html=1;" vertex="1" parent="1">
          <mxGeometry x="61" y="-208" width="111" height="33" as="geometry" />
        </mxCell>
        <mxCell id="o5xBKpDKvs33tsmAAUZQ-10" value="Pedido #152 (Mesa 3)" style="whiteSpace=wrap;html=1;" vertex="1" parent="1">
          <mxGeometry x="-143" y="-133" width="132" height="32" as="geometry" />
        </mxCell>
        <mxCell id="o5xBKpDKvs33tsmAAUZQ-11" value="" style="shape=internalStorage;whiteSpace=wrap;html=1;backgroundOutline=1;dx=147;dy=28;" vertex="1" parent="1">
          <mxGeometry x="-143" y="-88" width="186" height="125" as="geometry" />
        </mxCell>
        <mxCell id="o5xBKpDKvs33tsmAAUZQ-12" value="Producto" style="text;html=1;align=center;verticalAlign=middle;resizable=0;points=[];autosize=1;strokeColor=none;fillColor=none;fontSize=10;" vertex="1" parent="1">
          <mxGeometry x="-139" y="-85" width="58" height="24" as="geometry" />
        </mxCell>
        <mxCell id="o5xBKpDKvs33tsmAAUZQ-15" value="Cant.&lt;span style=&quot;color: rgba(0, 0, 0, 0); font-family: monospace; font-size: 0px; text-align: start;&quot;&gt;%3CmxGraphModel%3E%3Croot%3E%3CmxCell%20id%3D%220%22%2F%3E%3CmxCell%20id%3D%221%22%20parent%3D%220%22%2F%3E%3CmxCell%20id%3D%222%22%20value%3D%22Producto%22%20style%3D%22text%3Bhtml%3D1%3Balign%3Dcenter%3BverticalAlign%3Dmiddle%3Bresizable%3D0%3Bpoints%3D%5B%5D%3Bautosize%3D1%3BstrokeColor%3Dnone%3BfillColor%3Dnone%3BfontSize%3D10%3B%22%20vertex%3D%221%22%20parent%3D%221%22%3E%3CmxGeometry%20x%3D%22-139%22%20y%3D%22-85%22%20width%3D%2258%22%20height%3D%2224%22%20as%3D%22geometry%22%2F%3E%3C%2FmxCell%3E%3C%2Froot%3E%3C%2FmxGraphModel%3E&lt;/span&gt;&lt;span style=&quot;color: rgba(0, 0, 0, 0); font-family: monospace; font-size: 0px; text-align: start;&quot;&gt;%3CmxGraphModel%3E%3Croot%3E%3CmxCell%20id%3D%220%22%2F%3E%3CmxCell%20id%3D%221%22%20parent%3D%220%22%2F%3E%3CmxCell%20id%3D%222%22%20value%3D%22Producto%22%20style%3D%22text%3Bhtml%3D1%3Balign%3Dcenter%3BverticalAlign%3Dmiddle%3Bresizable%3D0%3Bpoints%3D%5B%5D%3Bautosize%3D1%3BstrokeColor%3Dnone%3BfillColor%3Dnone%3BfontSize%3D10%3B%22%20vertex%3D%221%22%20parent%3D%221%22%3E%3CmxGeometry%20x%3D%22-139%22%20y%3D%22-85%22%20width%3D%2258%22%20height%3D%2224%22%20as%3D%22geometry%22%2F%3E%3C%2FmxCell%3E%3C%2Froot%3E%3C%2FmxGraphModel%3E&lt;/span&gt;" style="text;html=1;align=center;verticalAlign=middle;resizable=0;points=[];autosize=1;strokeColor=none;fillColor=none;fontSize=10;" vertex="1" parent="1">
          <mxGeometry x="2" y="-85" width="42" height="24" as="geometry" />
        </mxCell>
        <mxCell id="o5xBKpDKvs33tsmAAUZQ-16" value="2" style="text;html=1;align=center;verticalAlign=middle;resizable=0;points=[];autosize=1;strokeColor=none;fillColor=none;fontSize=10;" vertex="1" parent="1">
          <mxGeometry x="11" y="-54" width="24" height="24" as="geometry" />
        </mxCell>
        <mxCell id="o5xBKpDKvs33tsmAAUZQ-17" value="1" style="text;html=1;align=center;verticalAlign=middle;resizable=0;points=[];autosize=1;strokeColor=none;fillColor=none;fontSize=10;" vertex="1" parent="1">
          <mxGeometry x="11" y="-23" width="24" height="24" as="geometry" />
        </mxCell>
        <mxCell id="o5xBKpDKvs33tsmAAUZQ-18" value="Mariscos&lt;span style=&quot;color: rgba(0, 0, 0, 0); font-family: monospace; font-size: 0px; text-align: start;&quot;&gt;%3CmxGraphModel%3E%3Croot%3E%3CmxCell%20id%3D%220%22%2F%3E%3CmxCell%20id%3D%221%22%20parent%3D%220%22%2F%3E%3CmxCell%20id%3D%222%22%20value%3D%22Producto%22%20style%3D%22text%3Bhtml%3D1%3Balign%3Dcenter%3BverticalAlign%3Dmiddle%3Bresizable%3D0%3Bpoints%3D%5B%5D%3Bautosize%3D1%3BstrokeColor%3Dnone%3BfillColor%3Dnone%3BfontSize%3D10%3B%22%20vertex%3D%221%22%20parent%3D%221%22%3E%3CmxGeometry%20x%3D%22-139%22%20y%3D%22-85%22%20width%3D%2258%22%20height%3D%2224%22%20as%3D%22geometry%22%2F%3E%3C%2FmxCell%3E%3C%2Froot%3E%3C%2FmxGraphModel%3E&lt;/span&gt;&lt;span style=&quot;color: rgba(0, 0, 0, 0); font-family: monospace; font-size: 0px; text-align: start;&quot;&gt;%3CmxGraphModel%3E%3Croot%3E%3CmxCell%20id%3D%220%22%2F%3E%3CmxCell%20id%3D%221%22%20parent%3D%220%22%2F%3E%3CmxCell%20id%3D%222%22%20value%3D%22Producto%22%20style%3D%22text%3Bhtml%3D1%3Balign%3Dcenter%3BverticalAlign%3Dmiddle%3Bresizable%3D0%3Bpoints%3D%5B%5D%3Bautosize%3D1%3BstrokeColor%3Dnone%3BfillColor%3Dnone%3BfontSize%3D10%3B%22%20vertex%3D%221%22%20parent%3D%221%22%3E%3CmxGeometry%20x%3D%22-139%22%20y%3D%22-85%22%20width%3D%2258%22%20height%3D%2224%22%20as%3D%22geometry%22%2F%3E%3C%2FmxCell%3E%3C%2Froot%3E%3C%2FmxGraphModel%3E&lt;/span&gt;" style="text;html=1;align=center;verticalAlign=middle;resizable=0;points=[];autosize=1;strokeColor=none;fillColor=none;fontSize=10;" vertex="1" parent="1">
          <mxGeometry x="-143" y="-51" width="58" height="24" as="geometry" />
        </mxCell>
        <mxCell id="o5xBKpDKvs33tsmAAUZQ-19" value="Soda" style="text;html=1;align=center;verticalAlign=middle;resizable=0;points=[];autosize=1;strokeColor=none;fillColor=none;fontSize=10;" vertex="1" parent="1">
          <mxGeometry x="-141" y="-23" width="41" height="24" as="geometry" />
        </mxCell>
        <mxCell id="o5xBKpDKvs33tsmAAUZQ-21" value="Estado: En preparación" style="whiteSpace=wrap;html=1;" vertex="1" parent="1">
          <mxGeometry x="-143" y="57" width="164" height="37" as="geometry" />
        </mxCell>
      </root>
    </mxGraphModel>
  </diagram>
  <diagram id="A_nGzGSXOJlLPhp1b0Rp" name="Mapa de navegación">
    <mxGraphModel grid="0" page="0" gridSize="10" guides="1" tooltips="1" connect="1" arrows="1" fold="1" pageScale="1" pageWidth="827" pageHeight="1169" math="0" shadow="0">
      <root>
        <mxCell id="0" />
        <mxCell id="1" parent="0" />
        <mxCell id="rw1mz45bp0JgHtDIpO6f-1" value="" style="rounded=0;whiteSpace=wrap;html=1;" vertex="1" parent="1">
          <mxGeometry x="-153" y="15" width="390" height="390" as="geometry" />
        </mxCell>
        <mxCell id="rw1mz45bp0JgHtDIpO6f-2" value="&lt;b&gt;Inicio&lt;/b&gt;" style="text;html=1;align=center;verticalAlign=middle;resizable=0;points=[];autosize=1;strokeColor=none;fillColor=none;fontSize=16;" vertex="1" parent="1">
          <mxGeometry x="12.5" y="35" width="60" height="31" as="geometry" />
        </mxCell>
        <mxCell id="rw1mz45bp0JgHtDIpO6f-6" style="edgeStyle=none;curved=1;rounded=0;orthogonalLoop=1;jettySize=auto;html=1;fontSize=12;startSize=8;endSize=8;" edge="1" parent="1" source="rw1mz45bp0JgHtDIpO6f-3" target="rw1mz45bp0JgHtDIpO6f-4">
          <mxGeometry relative="1" as="geometry" />
        </mxCell>
        <mxCell id="rw1mz45bp0JgHtDIpO6f-3" value="Pantalla de login" style="rounded=0;whiteSpace=wrap;html=1;" vertex="1" parent="1">
          <mxGeometry x="-18" y="79" width="120" height="60" as="geometry" />
        </mxCell>
        <mxCell id="rw1mz45bp0JgHtDIpO6f-4" value="Panel principal" style="rounded=0;whiteSpace=wrap;html=1;" vertex="1" parent="1">
          <mxGeometry x="-18" y="207" width="120" height="60" as="geometry" />
        </mxCell>
        <mxCell id="rw1mz45bp0JgHtDIpO6f-7" value="&lt;div&gt;Desde el &lt;b&gt;Panel Principal&lt;/b&gt;, se ramifica a:&lt;/div&gt;&lt;div&gt;&lt;br&gt;&lt;/div&gt;&lt;div&gt;&lt;b&gt;1. Gestión de Mesas:&lt;/b&gt;&lt;/div&gt;&lt;div&gt;&lt;br&gt;&lt;/div&gt;&lt;div&gt;→ [Lista de mesas] → [Crear / Editar mesa]&lt;/div&gt;&lt;div&gt;&lt;br&gt;&lt;/div&gt;&lt;div&gt;&lt;b&gt;2. Gestión de Pedidos:&lt;br&gt;&lt;/b&gt;&amp;nbsp;&amp;nbsp;&lt;/div&gt;&lt;div&gt;→ [Tomar nuevo pedido] → [Ver pedidos activos] → [Detalle de pedido]&lt;/div&gt;&lt;div&gt;&lt;br&gt;&lt;/div&gt;&lt;div&gt;&lt;b&gt;3. Vista de Cocina:&lt;/b&gt;&lt;br&gt;&amp;nbsp;&lt;/div&gt;&lt;div&gt;→ [Pedidos en cocina] → Cambiar estado pedido&lt;/div&gt;&lt;div&gt;&lt;br&gt;&lt;/div&gt;&lt;div&gt;&lt;b&gt;4. Reportes:&lt;/b&gt;&amp;nbsp;&amp;nbsp;&lt;br&gt;&lt;br&gt;&lt;/div&gt;&lt;div&gt;→ [Historial de pedidos] → Filtrar por fecha/mesa&lt;/div&gt;&lt;div&gt;&lt;br&gt;&lt;/div&gt;&lt;div&gt;&lt;b&gt;5. Salir:&amp;nbsp;&amp;nbsp;&lt;/b&gt;&lt;/div&gt;&lt;div&gt;→ [Cerrar sesión]&lt;/div&gt;" style="text;html=1;align=left;verticalAlign=middle;resizable=0;points=[];autosize=1;strokeColor=none;fillColor=none;fontSize=16;" vertex="1" parent="1">
          <mxGeometry x="-214" y="450" width="523" height="396" as="geometry" />
        </mxCell>
      </root>
    </mxGraphModel>
  </diagram>
  <diagram id="U9msLsUXd2COmRZUA5AF" name="Panel Principal">
    <mxGraphModel grid="0" page="0" gridSize="10" guides="1" tooltips="1" connect="1" arrows="1" fold="1" pageScale="1" pageWidth="827" pageHeight="1169" math="0" shadow="0">
      <root>
        <mxCell id="0" />
        <mxCell id="1" parent="0" />
        <mxCell id="YR6miHMKenk0WWN5JQ50-1" value="" style="whiteSpace=wrap;html=1;aspect=fixed;" vertex="1" parent="1">
          <mxGeometry x="125" y="50" width="484" height="484" as="geometry" />
        </mxCell>
        <mxCell id="YR6miHMKenk0WWN5JQ50-2" value="Registrar Pedido" style="rounded=1;whiteSpace=wrap;html=1;" vertex="1" parent="1">
          <mxGeometry x="184.5" y="117" width="120" height="41" as="geometry" />
        </mxCell>
        <mxCell id="YR6miHMKenk0WWN5JQ50-3" value="Panel Principal" style="text;html=1;align=center;verticalAlign=middle;resizable=0;points=[];autosize=1;strokeColor=none;fillColor=none;fontSize=16;" vertex="1" parent="1">
          <mxGeometry x="304.5" y="66" width="125" height="31" as="geometry" />
        </mxCell>
        <mxCell id="YR6miHMKenk0WWN5JQ50-4" value="Ver Pedidos" style="rounded=1;whiteSpace=wrap;html=1;" vertex="1" parent="1">
          <mxGeometry x="429.5" y="117" width="120" height="41" as="geometry" />
        </mxCell>
        <mxCell id="YR6miHMKenk0WWN5JQ50-5" value="Gestionar Mesas" style="rounded=1;whiteSpace=wrap;html=1;" vertex="1" parent="1">
          <mxGeometry x="183.75" y="180" width="366.5" height="41" as="geometry" />
        </mxCell>
        <mxCell id="YR6miHMKenk0WWN5JQ50-6" value="" style="verticalLabelPosition=bottom;shadow=0;dashed=0;align=center;html=1;verticalAlign=top;strokeWidth=1;shape=mxgraph.mockup.graphics.lineChart;strokeColor=none;strokeColor2=#666666;strokeColor3=#008cff;strokeColor4=#dddddd;" vertex="1" parent="1">
          <mxGeometry x="150" y="307" width="245" height="102" as="geometry" />
        </mxCell>
        <mxCell id="YR6miHMKenk0WWN5JQ50-7" value="" style="verticalLabelPosition=bottom;shadow=0;dashed=0;align=center;html=1;verticalAlign=top;strokeWidth=1;shape=mxgraph.mockup.graphics.pieChart;strokeColor=#008cff;parts=10,20,35;partColors=#e0e0e0,#d0d0d0,#c0c0c0,#b0b0b0,#a0a0a0;strokeWidth=2;" vertex="1" parent="1">
          <mxGeometry x="452" y="307" width="108" height="103" as="geometry" />
        </mxCell>
        <mxCell id="YR6miHMKenk0WWN5JQ50-8" value="Reportes Gráficos" style="text;html=1;align=center;verticalAlign=middle;whiteSpace=wrap;rounded=0;fontStyle=1;fontSize=14;" vertex="1" parent="1">
          <mxGeometry x="301.5" y="253" width="128" height="30" as="geometry" />
        </mxCell>
        <mxCell id="YR6miHMKenk0WWN5JQ50-9" value="Cerrar Sesión" style="rounded=1;whiteSpace=wrap;html=1;" vertex="1" parent="1">
          <mxGeometry x="307" y="457" width="120" height="41" as="geometry" />
        </mxCell>
      </root>
    </mxGraphModel>
  </diagram>
</mxfile>
